# xmcd
#
# Track frame offsets:
#	150
#	15540
#	31385
#	49662
#	67403
#	85342
#	102870
#	119306
#	139907
#	159863
#	175253
#	191098
#	209375
#	227116
#	245055
#	262583
#	279019
#	299620
#
# Disc length: 4261 seconds
#
# Revision: 1
# Processed by: cddbd v1.5.2PL0 Copyright (c) Steve Scherf et al.
# Submitted via: audiograbber 1.83.01
#
DISCID=0210a312
DTITLE=Various Artist - PHM0609-P
DYEAR=2006
DGENRE=karaoke
TTITLE0=Crazy - Gnarls Barkley
TTITLE1=A Public Affair - Jessica Simpson
TTITLE2=Stars Are Blind - Paris Hilton
TTITLE3=Ain't No Other Man - Christina Aguilera
TTITLE4=U Make Me Better - Bo Bice
TTITLE5=Hanging On - Cheyenne Kimball
TTITLE6=Miracle - Foo Fighters
TTITLE7=Lips Of An Angel - Hinder
TTITLE8=Through Glass - Stone Sour
TTITLE9=Crazy - Gnarls Barkley (vocal)
TTITLE10=A Public Affair - Jessica Simpson (vocal)
TTITLE11=Stars Are Blind - Paris Hilton (vocal)
TTITLE12=Ain't No Other Man - Christina Aguilera (vocal)
TTITLE13=U Make Me Better - Bo Bice (vocal)
TTITLE14=Hanging On - Cheyenne Kimball (vocal)
TTITLE15=Miracle - Foo Fighters (vocal)
TTITLE16=Lips Of An Angel - Hinder (vocal)
TTITLE17=Through Glass - Stone sour (vocal)
EXTD=
EXTT0=
EXTT1=
EXTT2=
EXTT3=
EXTT4=
EXTT5=
EXTT6=
EXTT7=
EXTT8=
EXTT9=
EXTT10=
EXTT11=
EXTT12=
EXTT13=
EXTT14=
EXTT15=
EXTT16=
EXTT17=
PLAYORDER=
